/* XPM */
static char * blood_xpm[] = {
"64 64 82 1",
" 	c None",
".	c #7C7352",
"+	c #6B6B64",
"@	c #656869",
"#	c #5C646F",
"$	c #595E69",
"%	c #5B626D",
"&	c #5A606B",
"*	c #565660",
"=	c #4C3B41",
"-	c #514951",
";	c #50464E",
">	c #4F454C",
",	c #514A53",
"'	c #534E56",
")	c #585A64",
"!	c #595D67",
"~	c #575963",
"{	c #504750",
"]	c #482A2F",
"^	c #492D32",
"/	c #4A3339",
"(	c #4C3A40",
"_	c #4B0F12",
":	c #481113",
"<	c #471114",
"[	c #461214",
"}	c #491013",
"|	c #4C3940",
"1	c #4C3B42",
"2	c #4C393F",
"3	c #4D3F46",
"4	c #4D3C43",
"5	c #451214",
"6	c #471214",
"7	c #451315",
"8	c #461113",
"9	c #4A1012",
"0	c #534D56",
"a	c #4C0E11",
"b	c #4E0D10",
"c	c #510A0E",
"d	c #4E0C10",
"e	c #4B0F11",
"f	c #481013",
"g	c #441315",
"h	c #4F0C0F",
"i	c #4F0C10",
"j	c #500B0F",
"k	c #4C0F11",
"l	c #491012",
"m	c #530D11",
"n	c #591419",
"o	c #550F13",
"p	c #524B53",
"q	c #561216",
"r	c #581217",
"s	c #561116",
"t	c #520C10",
"u	c #581318",
"v	c #5B161B",
"w	c #531115",
"x	c #55535C",
"y	c #540F13",
"z	c #581418",
"A	c #581317",
"B	c #540E12",
"C	c #561014",
"D	c #5B161A",
"E	c #4E0F12",
"F	c #534E57",
"G	c #5A151A",
"H	c #5C171C",
"I	c #571216",
"J	c #511115",
"K	c #54515A",
"L	c #535059",
"M	c #4D0E11",
"N	c #4E4148",
"O	c #4D3B42",
"P	c #4B383E",
"Q	c #4D3E45",
"................................................................",
".+@@@@@@@@@@@@@@@@@@@@@@@@@@@@@@@@@@@@@@@@@@@@@@@@@@@@@@@@@@@@+.",
".@############################################################@.",
".@############################################################@.",
".@############################################################@.",
".@############################################################@.",
".@############################################################@.",
".@############################################################@.",
".@############################################################@.",
".@############################################################@.",
".@############################################################@.",
".@############################################################@.",
".@############################################################@.",
".@############################################################@.",
".@############################################################@.",
".@############################################################@.",
".@############################################################@.",
".@############################################################@.",
".@############################################################@.",
".@############################################################@.",
".@############################################################@.",
".@############################################################@.",
".@############################################################@.",
".@############################################################@.",
".@############################################################@.",
".@############################################################@.",
".@############################################################@.",
".@############################################################@.",
".@############################################################@.",
".@############################################################@.",
".@############################################################@.",
".@############################################################@.",
".@############################################################@.",
".@############################################################@.",
".@############################################################@.",
".@############################################################@.",
".@############################################################@.",
".@############################################################@.",
".@############################################################@.",
".@############################################################@.",
".@############################################################@.",
".@############################################################@.",
".@############################################################@.",
".@############################################################@.",
".@############################################################@.",
".@############################################$%&&############@.",
".@######################&*=-;>>,'*)#####&##!~{]^/('*##########@.",
".@##################)&_:<::::[<}|123'/4-{}[56[786<<<9#########@.",
".@#################)0a_bccccccdbef[5g7[<_aaahiijjccd:b########@.",
".@#################[[kcccccccccc_9:}}_adccccccccccja:l########@.",
".@################;g:cccccccccccccccccccccccmnnoja_:[p########@.",
".@################<5acqrstttcccccccccccccccuvvwd_:}ax&########@.",
".@###############&_}dcyruzzAABcccccccctCAvDvrE}_bF#)##########@.",
".@################)9_:ajccctBBcccccccBGHDuIJ:[KLx#############@.",
".@################K'9<[[[<:hhbaaMMhhjBcdada_6x)&##############@.",
".@################KK{,NOP5[5777[557[<9}a9:QK##################@.",
".@#####################&)K*xpppppppp;'K)&&####################@.",
".@############################################################@.",
".@############################################################@.",
".@############################################################@.",
".@############################################################@.",
".@############################################################@.",
".+@@@@@@@@@@@@@@@@@@@@@@@@@@@@@@@@@@@@@@@@@@@@@@@@@@@@@@@@@@@@+.",
"................................................................"};
