/* XPM */
static char * left_xpm[] = {
"64 64 706 2",
"  	c None",
". 	c #7C7352",
"+ 	c #6B6B64",
"@ 	c #656869",
"# 	c #666868",
"$ 	c #666968",
"% 	c #666869",
"& 	c #5C646F",
"* 	c #5D656E",
"= 	c #5D646F",
"- 	c #555D67",
"; 	c #424850",
"> 	c #2D3137",
", 	c #080A0C",
"' 	c #000000",
") 	c #131619",
"! 	c #15181B",
"~ 	c #23272C",
"{ 	c #484E57",
"] 	c #535A64",
"^ 	c #32363D",
"/ 	c #2D3238",
"( 	c #575E69",
"_ 	c #5A626D",
": 	c #3A3F47",
"< 	c #010202",
"[ 	c #010001",
"} 	c #390809",
"| 	c #400B0A",
"1 	c #4A090A",
"2 	c #4B0909",
"3 	c #500808",
"4 	c #5A0809",
"5 	c #5B0708",
"6 	c #540909",
"7 	c #090000",
"8 	c #010000",
"9 	c #101315",
"0 	c #4A515A",
"a 	c #22262B",
"b 	c #250202",
"c 	c #730E0F",
"d 	c #A81511",
"e 	c #BD1515",
"f 	c #BE1615",
"g 	c #BF1415",
"h 	c #BF1515",
"i 	c #C11413",
"j 	c #C31313",
"k 	c #C21413",
"l 	c #AE1718",
"m 	c #5A090B",
"n 	c #4E555F",
"o 	c #58606A",
"p 	c #1E2126",
"q 	c #000001",
"r 	c #060000",
"s 	c #71100E",
"t 	c #B31515",
"u 	c #C41112",
"v 	c #C51111",
"w 	c #C61111",
"x 	c #781111",
"y 	c #070000",
"z 	c #25292F",
"A 	c #5B636E",
"B 	c #262A2F",
"C 	c #050000",
"D 	c #811210",
"E 	c #C51112",
"F 	c #C31215",
"G 	c #6A0D0F",
"H 	c #525963",
"I 	c #494F58",
"J 	c #030000",
"K 	c #5E1618",
"L 	c #B01C1A",
"M 	c #B11919",
"N 	c #AA1817",
"O 	c #A91716",
"P 	c #B01B18",
"Q 	c #B91716",
"R 	c #C31212",
"S 	c #C41212",
"T 	c #C51211",
"U 	c #C61110",
"V 	c #C51113",
"W 	c #910F1A",
"X 	c #363B42",
"Y 	c #31363D",
"Z 	c #020000",
"` 	c #0E0000",
" .	c #0A0000",
"..	c #290000",
"+.	c #510A0B",
"@.	c #680F0F",
"#.	c #8B1110",
"$.	c #AD1514",
"%.	c #C51212",
"&.	c #C51110",
"*.	c #A71020",
"=.	c #360519",
"-.	c #030304",
";.	c #58606B",
">.	c #4C525C",
",.	c #0C0E11",
"'.	c #000100",
").	c #770F10",
"!.	c #C21412",
"~.	c #C6110F",
"{.	c #B6101D",
"].	c #640729",
"^.	c #434951",
"/.	c #35484E",
"(.	c #63808A",
"_.	c #80A3B1",
":.	c #85A9B7",
"<.	c #83A9B7",
"[.	c #84A9B8",
"}.	c #7495A3",
"|.	c #607A83",
"1.	c #485A62",
"2.	c #00070F",
"3.	c #891010",
"4.	c #C51213",
"5.	c #C11218",
"6.	c #7A0D2D",
"7.	c #4C535D",
"8.	c #0C1317",
"9.	c #658089",
"0.	c #A5C1CB",
"a.	c #C4DDE3",
"b.	c #D9EBEF",
"c.	c #EEF7F8",
"d.	c #F8FFFF",
"e.	c #F6FEFF",
"f.	c #E3F0F4",
"g.	c #9CC9D9",
"h.	c #95C9DA",
"i.	c #97C8DB",
"j.	c #98C6D7",
"k.	c #8CB3C1",
"l.	c #3B4B51",
"m.	c #350505",
"n.	c #BC1513",
"o.	c #8D0D2C",
"p.	c #260310",
"q.	c #1A1D21",
"r.	c #263136",
"s.	c #87ADBC",
"t.	c #D5E7EC",
"u.	c #FAFFFE",
"v.	c #FEFEFE",
"w.	c #FFFFFF",
"x.	c #BFDDE6",
"y.	c #95C9DB",
"z.	c #95C9DC",
"A.	c #8AB6C6",
"B.	c #4B626B",
"C.	c #1E282B",
"D.	c #B91615",
"E.	c #C71110",
"F.	c #C41111",
"G.	c #920C2C",
"H.	c #3A061B",
"I.	c #1D2125",
"J.	c #484F58",
"K.	c #87ACBD",
"L.	c #99C8DC",
"M.	c #F6FBFD",
"N.	c #FEFFFF",
"O.	c #FCFFFF",
"P.	c #F6FBFC",
"Q.	c #F1F9F9",
"R.	c #A8CFDD",
"S.	c #96C8DB",
"T.	c #79A1AF",
"U.	c #4B646E",
"V.	c #384A50",
"W.	c #AF1313",
"X.	c #C41211",
"Y.	c #940B2C",
"Z.	c #4A0923",
"`.	c #5A616C",
" +	c #31363C",
".+	c #50656D",
"++	c #98C8DB",
"@+	c #96C7DB",
"#+	c #B9D7E2",
"$+	c #C4DFE8",
"%+	c #C4DFE7",
"&+	c #BDD9E3",
"*+	c #ABCFDC",
"=+	c #A7CEDC",
"-+	c #99C9DB",
";+	c #95C7DB",
">+	c #97C8DC",
",+	c #96C9DB",
"'+	c #96C8D9",
")+	c #5C7C88",
"!+	c #4A636E",
"~+	c #3C4E54",
"{+	c #AD1312",
"]+	c #950B2C",
"^+	c #620B2E",
"/+	c #202429",
"(+	c #2F333A",
"_+	c #3F454D",
":+	c #515862",
"<+	c #121417",
"[+	c #516C77",
"}+	c #93C6D7",
"|+	c #96C9DC",
"1+	c #94CADC",
"2+	c #96C8DC",
"3+	c #95C9DD",
"4+	c #96C8DD",
"5+	c #96C9DA",
"6+	c #78A2AF",
"7+	c #47636C",
"8+	c #4A636D",
"9+	c #38474D",
"0+	c #AF1312",
"a+	c #720E36",
"b+	c #0F0002",
"c+	c #33454C",
"d+	c #55747D",
"e+	c #759BAA",
"f+	c #87B6C6",
"g+	c #8CBBCB",
"h+	c #92C3D4",
"i+	c #97C8D9",
"j+	c #97C9DA",
"k+	c #95C8DA",
"l+	c #95C8DB",
"m+	c #8EBECE",
"n+	c #739AA7",
"o+	c #4A646D",
"p+	c #4B646C",
"q+	c #2D3B41",
"r+	c #060100",
"s+	c #B91515",
"t+	c #760C38",
"u+	c #1D0009",
"v+	c #000101",
"w+	c #150304",
"x+	c #1D0000",
"y+	c #080000",
"z+	c #060202",
"A+	c #30353B",
"B+	c #000002",
"C+	c #232C30",
"D+	c #49646A",
"E+	c #48646D",
"F+	c #49636C",
"G+	c #48636C",
"H+	c #46616B",
"I+	c #496570",
"J+	c #506C77",
"K+	c #5B7883",
"L+	c #5D7A86",
"M+	c #5C7A86",
"N+	c #5B7A86",
"O+	c #49646F",
"P+	c #4A646C",
"Q+	c #4B636C",
"R+	c #242E32",
"S+	c #230302",
"T+	c #BC1514",
"U+	c #C31114",
"V+	c #8C092F",
"W+	c #770B37",
"X+	c #1F0009",
"Y+	c #621314",
"Z+	c #BF1516",
"`+	c #C01617",
" @	c #A91516",
".@	c #370504",
"+@	c #32373E",
"@@	c #2F3F43",
"#@	c #4C636C",
"$@	c #4B636E",
"%@	c #3B4A50",
"&@	c #6A0C0B",
"*@	c #C41311",
"=@	c #C11217",
"-@	c #860833",
";@	c #750C37",
">@	c #160004",
",@	c #5B0B0D",
"'@	c #C61113",
")@	c #770F0E",
"!@	c #010002",
"~@	c #474D56",
"{@	c #4D535D",
"]@	c #2B383E",
"^@	c #435961",
"/@	c #4C646F",
"(@	c #4A656D",
"_@	c #49646C",
":@	c #49646D",
"<@	c #4B636D",
"[@	c #496369",
"}@	c #324248",
"|@	c #9C1414",
"1@	c #C51210",
"2@	c #C01218",
"3@	c #840833",
"4@	c #180006",
"5@	c #520809",
"6@	c #C51215",
"7@	c #C41213",
"8@	c #891414",
"9@	c #464D56",
"0@	c #020405",
"a@	c #232C31",
"b@	c #38494D",
"c@	c #435960",
"d@	c #49626B",
"e@	c #4D646D",
"f@	c #4B656B",
"g@	c #496068",
"h@	c #3F545A",
"i@	c #1F2A2D",
"j@	c #4F0809",
"k@	c #BE1413",
"l@	c #C5120F",
"m@	c #B8111B",
"n@	c #7E0835",
"o@	c #770A36",
"p@	c #200009",
"q@	c #330511",
"r@	c #890B30",
"s@	c #8D0A2E",
"t@	c #A10E25",
"u@	c #96131B",
"v@	c #040606",
"w@	c #000102",
"x@	c #0A0F12",
"y@	c #1E2628",
"z@	c #232D2F",
"A@	c #1B2527",
"B@	c #070C0F",
"C@	c #1E0201",
"D@	c #9F1211",
"E@	c #AF0F1E",
"F@	c #7B0838",
"G@	c #760B36",
"H@	c #23010C",
"I@	c #23020C",
"J@	c #770A37",
"K@	c #7B0839",
"L@	c #7B0938",
"M@	c #760A32",
"N@	c #040506",
"O@	c #4C0B0A",
"P@	c #711110",
"Q@	c #2F0303",
"R@	c #020001",
"S@	c #4D0707",
"T@	c #A61615",
"U@	c #AA0F23",
"V@	c #270311",
"W@	c #1D0007",
"X@	c #760A36",
"Y@	c #7B0837",
"Z@	c #7A0938",
"`@	c #750A37",
" #	c #0D0103",
".#	c #3C424A",
"+#	c #6D0E0F",
"@#	c #C31312",
"##	c #BB1515",
"$#	c #AA1313",
"%#	c #8D1415",
"&#	c #730F10",
"*#	c #560809",
"=#	c #2A0202",
"-#	c #130101",
";#	c #0F0000",
">#	c #140101",
",#	c #310202",
"'#	c #6A0E0D",
")#	c #981315",
"!#	c #BD1413",
"~#	c #C31211",
"{#	c #A20F25",
"]#	c #770A38",
"^#	c #290212",
"/#	c #180005",
"(#	c #740C37",
"_#	c #190309",
":#	c #373D44",
"<#	c #59616C",
"[#	c #630813",
"}#	c #C31216",
"|#	c #C21312",
"1#	c #B91817",
"2#	c #B11414",
"3#	c #B21515",
"4#	c #BB1718",
"5#	c #C4120F",
"6#	c #C31213",
"7#	c #780A38",
"8#	c #2A0212",
"9#	c #750B39",
"0#	c #760B38",
"a#	c #22050F",
"b#	c #32373D",
"c#	c #5D0A1D",
"d#	c #C01216",
"e#	c #C41210",
"f#	c #830732",
"g#	c #750B38",
"h#	c #2B0514",
"i#	c #2B2F35",
"j#	c #4A5059",
"k#	c #590D27",
"l#	c #BB1119",
"m#	c #B7111C",
"n#	c #7E0734",
"o#	c #330516",
"p#	c #24282D",
"q#	c #454C54",
"r#	c #5B0C2C",
"s#	c #B00F20",
"t#	c #AA0F21",
"u#	c #7B0B34",
"v#	c #290211",
"w#	c #750B37",
"x#	c #7A0839",
"y#	c #3C0419",
"z#	c #1B1E22",
"A#	c #454B54",
"B#	c #5D0B2D",
"C#	c #9E0F28",
"D#	c #C21114",
"E#	c #8D0B2D",
"F#	c #290310",
"G#	c #190006",
"H#	c #760A39",
"I#	c #7A0838",
"J#	c #42051C",
"K#	c #111316",
"L#	c #464D55",
"M#	c #8C0A2E",
"N#	c #C31214",
"O#	c #B3101E",
"P#	c #7D0736",
"Q#	c #1C0109",
"R#	c #760938",
"S#	c #41051C",
"T#	c #5D0A2D",
"U#	c #7D0735",
"V#	c #B8121B",
"W#	c #9B0C28",
"X#	c #2A0211",
"Y#	c #23020E",
"Z#	c #780939",
"`#	c #7A0937",
" $	c #3A041A",
".$	c #5B092A",
"+$	c #7B073A",
"@$	c #980C29",
"#$	c #AE0E20",
"$$	c #7F0735",
"%$	c #280411",
"&$	c #790939",
"*$	c #320418",
"=$	c #555C66",
"-$	c #490521",
";$	c #7D0732",
">$	c #AC0F22",
",$	c #C41114",
"'$	c #B4101E",
")$	c #7D0835",
"!$	c #280212",
"~$	c #2E0414",
"{$	c #760C37",
"]$	c #2A0513",
"^$	c #41051D",
"/$	c #7C0736",
"($	c #920C2B",
"_$	c #AE0F1F",
":$	c #BC1219",
"<$	c #C21216",
"[$	c #BE1219",
"}$	c #B20F1E",
"|$	c #A80E22",
"1$	c #9F0D27",
"2$	c #950A2D",
"3$	c #860933",
"4$	c #7A0837",
"5$	c #7B0836",
"6$	c #310416",
"7$	c #7A0939",
"8$	c #1A030A",
"9$	c #2F343A",
"0$	c #282C31",
"a$	c #24030E",
"b$	c #760B37",
"c$	c #7C0836",
"d$	c #7C0735",
"e$	c #830832",
"f$	c #8D0B2F",
"g$	c #900A2C",
"h$	c #900A2D",
"i$	c #8F0B2E",
"j$	c #7C0737",
"k$	c #7C0837",
"l$	c #770B38",
"m$	c #21000A",
"n$	c #39061B",
"o$	c #740B36",
"p$	c #040001",
"q$	c #0F0105",
"r$	c #720B35",
"s$	c #7B083A",
"t$	c #20000A",
"u$	c #41081F",
"v$	c #7C0738",
"w$	c #690B31",
"x$	c #444A52",
"y$	c #6E0B33",
"z$	c #790938",
"A$	c #20010A",
"B$	c #490925",
"C$	c #720B32",
"D$	c #41071D",
"E$	c #4E545E",
"F$	c #600B2C",
"G$	c #790937",
"H$	c #780B37",
"I$	c #6F0A35",
"J$	c #640D30",
"K$	c #6D0B32",
"L$	c #700E37",
"M$	c #0D0002",
"N$	c #36051A",
"O$	c #520725",
"P$	c #4F0824",
"Q$	c #1C020A",
"R$	c #31353C",
"S$	c #4F5660",
"T$	c #4A0824",
"U$	c #5B082A",
"V$	c #2C0416",
"W$	c #39091E",
"X$	c #390A1F",
"Y$	c #380A1E",
"Z$	c #2C0515",
"`$	c #1C010C",
" %	c #0D0005",
".%	c #020002",
"+%	c #0A0003",
"@%	c #560927",
"#%	c #7A0836",
"$%	c #670B31",
"%%	c #575F69",
"&%	c #260211",
"*%	c #750C39",
"=%	c #790936",
"-%	c #790A35",
";%	c #640A2E",
">%	c #280310",
",%	c #7B0737",
"'%	c #5D082C",
")%	c #2E3238",
"!%	c #585F6A",
"~%	c #21252A",
"{%	c #060002",
"]%	c #740B35",
"^%	c #590F2D",
"/%	c #0A0103",
"(%	c #40464E",
"_%	c #310717",
":%	c #560728",
"<%	c #4F565F",
"[%	c #565D68",
"}%	c #353A41",
"|%	c #6C0A34",
"1%	c #750E37",
"2%	c #160106",
"3%	c #1F2327",
"4%	c #20040F",
"5%	c #560726",
"6%	c #3E434B",
"7%	c #040101",
"8%	c #6E0A35",
"9%	c #350417",
"0%	c #16191C",
"a%	c #1B030C",
"b%	c #530726",
"c%	c #090102",
"d%	c #710935",
"e%	c #3B061C",
"f%	c #25292E",
"g%	c #260512",
"h%	c #780938",
"i%	c #7C0739",
"j%	c #42081F",
"k%	c #630A2F",
"l%	c #730C37",
"m%	c #120005",
"n%	c #3E444B",
"o%	c #13161A",
"p%	c #2F0817",
"q%	c #780937",
"r%	c #340417",
"s%	c #2A2F34",
"t%	c #2D0615",
"u%	c #540B2A",
"v%	c #5D082D",
"w%	c #5E082E",
"x%	c #5D072D",
"y%	c #4A0925",
"z%	c #464C53",
"A%	c #515860",
"B%	c #515760",
"C%	c #202327",
"D%	c #2E0616",
"E%	c #20010B",
"F%	c #5C636E",
"G%	c #575E68",
"H%	c #454A51",
"I%	c #020102",
"J%	c #1A1C1D",
"K%	c #373B3B",
"L%	c #383B3C",
"M%	c #393B3C",
"N%	c #1E1F20",
"O%	c #010100",
"P%	c #3F061E",
"Q%	c #720B36",
"R%	c #790A37",
"S%	c #690C31",
"T%	c #180109",
"U%	c #292D31",
"V%	c #535A63",
"W%	c #59616B",
"X%	c #494F56",
"Y%	c #3B4042",
"Z%	c #373C3A",
"`%	c #383B3A",
" &	c #2B2D2D",
".&	c #16181A",
"+&	c #0C0E0E",
"@&	c #080A0A",
"#&	c #070908",
"$&	c #080B0A",
"%&	c #0C0F0E",
"&&	c #181B1A",
"*&	c #353939",
"=&	c #373B3C",
"-&	c #2A2C2D",
";&	c #170109",
">&	c #440821",
",&	c #4F0B26",
"'&	c #4E0925",
")&	c #370317",
"!&	c #0A0004",
"~&	c #242626",
"{&	c #383C3D",
"]&	c #42484A",
"^&	c #525961",
"/&	c #3A4041",
"(&	c #363B3C",
"_&	c #373C3B",
":&	c #373C3C",
"<&	c #363A3A",
"[&	c #363B3B",
"}&	c #383C3C",
"|&	c #28292A",
"1&	c #020303",
"2&	c #0B0C0E",
"3&	c #343838",
"4&	c #363C3B",
"5&	c #50575F",
"6&	c #323536",
"7&	c #1C1D1D",
"8&	c #020202",
"9&	c #171918",
"0&	c #2C302F",
"a&	c #35393A",
"b&	c #3D4144",
"c&	c #4C535A",
"d&	c #43484C",
"e&	c #2F3333",
"f&	c #2E3131",
"g&	c #2E3233",
"h&	c #343938",
"i&	c #3D4143",
"j&	c #484E54",
"k&	c #525962",
"l&	c #585F69",
"m&	c #4E545C",
"n&	c #4A5057",
"o&	c #454B51",
"p&	c #42484C",
"q&	c #3D4346",
"r&	c #393D3F",
"s&	c #3D4245",
"t&	c #3F4448",
"u&	c #444A4F",
"v&	c #4C5259",
"w&	c #565D67",
". . . . . . . . . . . . . . . . . . . . . . . . . . . . . . . . . . . . . . . . . . . . . . . . . . . . . . . . . . . . . . . . ",
". + @ @ @ @ @ @ @ @ @ @ @ @ @ # $ $ % @ @ @ @ @ @ @ @ @ @ @ @ @ @ @ @ @ @ @ @ @ @ @ @ @ @ @ @ @ @ @ @ @ @ @ @ @ @ @ @ @ @ @ + . ",
". @ & & & & & & & & & & & & & * * * = = & & & & & & & & & & & & & & & & & & & & & & & & & & & & & & & & & & & & & & & & & & @ . ",
". @ & & & & & & & & & & & & & & & & & & & & & & & & & & & & & & & & & & & & & & & & & & & & & & & & & & & & & & & & & & & & @ . ",
". @ & & & & & & & & & & & & & & & & & & & & & & & & & & & & & & & & & & & & & & & & & & & & & & & & & & & & & & & & & & & & @ . ",
". @ & & & & & & & & & & & & & & & & & & & & & & & & & & & & & & & & & & & & & & & & & & & & & & & & & & & & & & & & & & & & @ . ",
". @ & & & & & & & & & & & & & & & & & & & & & & & & & & & & & & & & & & & & & & & & & & & & & & & & & & & & & & & & & & & & @ . ",
". @ & & & & & & & & & & & & & & & & & & & & & - ; > , ' ) ! ! ! ! ! ~ { & & & & & & & & & & & & & & & & & & & & & & & & & & @ . ",
". @ & & & & & & & & & & & & & & & & & & & ] ^ ' ' ' ' ' ' ' ' ' ' ' ' ' / ( & & & & & & & & & & & & & & & & & & & & & & & & @ . ",
". @ & & & & & & & & & & & & & & & & & _ : < ' ' [ ' } | 1 2 3 4 5 6 7 ' 8 9 0 & & & & & & & & & & & & & & & & & & & & & & & @ . ",
". @ & & & & & & & & & & & & & & & & ( a ' ' ' b c d e f g h i j j k l m ' 8 < n & & & & & & & & & & & & & & & & & & & & & & @ . ",
". @ & & & & & & & & & & & & & & & o p [ q r s t u v v v v v w w v v v g x y ' z & & & & & & & & & & & & & & & & & & & & & & @ . ",
". @ & & & & & & & & & & & & & & A B ' ' C D j v v v v v v v w w v v v E F G q ' H & & & & & & & & & & & & & & & & & & & & & @ . ",
". @ & & & & & & & & & & & & & & I ' ' J K L M N N O P Q R S T U v V v E E W [ ' X & & & & & & & & & & & & & & & & & & & & & @ . ",
". @ & & & & & & & & & & & & & & Y ' ' 8 Z `  .' ' ' 8 ..+.@.#.$.%.v v E &.*.=.' -.;.& & & & & & & & & & & & & & & & & & & & @ . ",
". @ & & & & & & & & & & & & & >.,.8 [ Z '.' ' ' ' 8 ' q q 8 '  .).!.v ~.v {.].8 ' { & & & & & & & & & & & & & & & & & & & & @ . ",
". @ & & & & & & & & & & & & ^.' ' 8 ' /.(._.:.<.[.}.|.1.2.' ' ' ' 3.4.v v 5.6.r ' : & & & & & & & & & & & & & & & & & & & & @ . ",
". @ & & & & & & & & & & & 7.< [ 8.9.0.a.b.c.d.e.f.g.h.i.j.k.l.' ' m.n.U v u o.p.' > & & & & & & & & & & & & & & & & & & & & @ . ",
". @ & & & & & & & & & & _ q.' r.s.t.u.v.v.w.w.w.w.x.h.y.z.A.B.C.' ' D.E.v F.G.H.' I.& & & & & & & & & & & & & & & & & & & & @ . ",
". @ & & & & & & & & & & J.' ' K.L.M.w.N.N.O.O.P.Q.R.S.z.y.T.U.V.8 ' W.X.v u Y.Z.8 ' `.& & & & & & & & & & & & & & & & & & & @ . ",
". @ & & & & & & & & & &  +8 .+++@+#+$+%+&+*+=+-+;+>+>+,+'+)+!+~+8 ' {+X.v E ]+^+Z 8 ! /+(+_+:+A & & & & & & & & & & & & & & @ . ",
". @ & & & & & & & & & & <+8 [+}+|+y.y.z.1+y.2+3+3+4+2+5+6+7+8+9+' ' 0+v v E Y.a+b+[ [ ' '.' ' ~ - & & & & & & & & & & & & & @ . ",
". @ & & & & & & & & & & ' ' c+d+e+f+g+h+i+j+h.k+l+,+m+n+!+o+p+q+' r+s+X.v v ]+t+u+v+w+x+y+z+' ' A+& & & & & & & & & & & & & @ . ",
". @ & & & & & & & & & & ) B+C+D+E+F+G+H+I+J+K+L+M+N+O+P+Q+o+P+R+q S+T+v v U+V+W+X+'.Y+Z+`+ @.@8 ' H & & & & & & & & & & & & @ . ",
". @ & & & & & & & & & & +@B+q @@#@o+o+o+o+o+o+o+o+o+o+o+o+$@%@' [ &@*@U v =@-@;@>@' ,@'@v v )@!@' ~@& & & & & & & & & & & & @ . ",
". @ & & & & & & & & & & {@q q ' ]@^@/@o+(@_@P+o+o+:@o+<@[@}@' 8 ' |@U X.1@2@3@;@4@'.5@6@7@T 8@Z ' 9@& & & & & & & & & & & & @ . ",
". @ & & & & & & & & & & &  +'.' ' 0@a@b@c@d@e@p+f@f@g@h@i@[ ' 8 j@k@v &.l@m@n@o@p@' q@r@s@t@u@'.' 9@& & & & & & & & & & & & @ . ",
". @ & & & & & & & & & & & & v@q q 8 ' 8 w@x@y@z@z@A@B@q q ' q C@D@1@v w v E@F@G@H@8 I@J@K@L@M@' ' ; & & & & & & & & & & & & @ . ",
". @ & & & & & & & & & & & & N@8 O@P@Q@8 '.8 8 ' ' ' 8 [ '.R@S@T@F.&.v v u U@F@J@V@8 W@X@Y@Z@`@ #' .#& & & & & & & & & & & & @ . ",
". @ & & & & & & & & & & & _ -.8 +#@###$#%#&#*#=#-#;#>#,#'#)#!#~#1@S v &.T {#F@]#^#' /#(#Y@Z@J@_#' :#& & & & & & & & & & & & @ . ",
". @ & & & & & & & & & & & <#-.8 [#}#v v v v |#1#2#2#3#4#5#v v v v v v v 6#s@F@7#8#Z 4@9#Y@Z@0#a#' b#& & & & & & & & & & & & @ . ",
". @ & & & & & & & & & & & :+' R@c#d#v v v X.v 1@U e#U w v 1@v v v v v v d#f#F@7#^#8 4@g#Y@Z@]#h#' i#& & & & & & & & & & & & @ . ",
". @ & & & & & & & & & & & j#' 8 k#l#E v v v v v v v v v v v v v v v v v m#n#F@7#^#' /#;@Y@Z@7#o#' p#& & & & & & & & & & & & @ . ",
". @ & & & & & & & & & & & q#' '.r#s#E v v v v v v v v v v v v v v v v v t#u#F@7#v#' /#w#Y@Z@x#y#' z#& & & & & & & & & & & & @ . ",
". @ & & & & & & & & & & & A#' 8 B#C#T v v v v v v v v v v v v v v v v D#E#F@F@7#F#' G#H#Y@Z@I#J#' K#& & & & & & & & & & & & @ . ",
". @ & & & & & & & & & & & L#' [ B#M#N#v v v v v v v v v v v v v v v v O#P#F@F@7#F#' Q#R#Y@Z@I#S#' ' & & & & & & & & & & & & @ . ",
". @ & & & & & & & & & & & j#' q T#U#V#v v v v v v v v v v 1@e#e#e#1@R W#F@F@F@7#X#Z Y#Z#Y@Z@`# $' ' & & & & & & & & & & & & @ . ",
". @ & & & & & & & & & & & n ' ' .$+$@$6#v v v v v v v v v v X.X.X.S #$$$F@F@F@7#8#Z %$&$Y@Z@7#*$' ,.& & & & & & & & & & & & @ . ",
". @ & & & & & & & & & & & =$< '.-$F@;$>$S u &.v v v v v X.1@v V ,$'$)$Y@F@F@F@]#!$' ~$K@Y@Z@{$]$' p & & & & & & & & & & & & @ . ",
". @ & & & & & & & & & & & A , ' ^$&$I#/$($_$:$<$N#N#N#R [$}$|$1$2$3$4$5$F@F@F@]#p.' 6$7$Y@Z@0#8$' 9$& & & & & & & & & & & & @ . ",
". @ & & & & & & & & & & & & 0$8 a$b$F@F@F@c$d$e$f$g$h$i$e$j$k$F@F@F@F@F@F@F@F@l$m$'.n$F@Y@Z@o$p$' .#& & & & & & & & & & & & @ . ",
". @ & & & & & & & & & & & & / ' q$r$F@F@F@K@x#I#4$K@s$F@F@F@F@F@F@F@F@F@F@F@F@t+t$' u$v$Y@I#w$'.' 0 & & & & & & & & & & & & @ . ",
". @ & & & & & & & & & & & & x$' [ y$5$F@F@F@F@F@F@F@F@I#z$K@K@K@F@F@F@F@F@F@F@t+A$' B$K@`#C$D$'.< ;.& & & & & & & & & & & & @ . ",
". @ & & & & & & & & & & & & E$8 ' F$Y@F@Z@z$Z@Z@Z@Z@G$H$I$J$K$`#F@F@F@F@F@F@F@L$M$' N$O$P$Q$B+8 R$& & & & & & & & & & & & & @ . ",
". @ & & & & & & & & & & & & S$' ' T$Y@5$U$V$W$X$X$Y$Z$`$ %.%+%@%#%4$F@F@F@F@F@$%Z '.' ' ' ' ' K#H & & & & & & & & & & & & & @ . ",
". @ & & & & & & & & & & & & %%N@' &%*%=%-%;%>%' '.8 8 8 8 R@!@^$`#`#F@F@F@I#,%'%8 '.' ' ' ' )%!%& & & & & & & & & & & & & & @ . ",
". @ & & & & & & & & & & & & & ~%' {%I$F@F@F@]%^%/%' I.(%x$-.' _%G$Y@F@F@F@Y@5$:%'.'.<%[%[%[%A & & & & & & & & & & & & & & & @ . ",
". @ & & & & & & & & & & & & & }%' ' |%F@F@Z@=%1%2%' 3%& <#' ' 4%7#Y@F@F@F@Y@4$5%q ' ( & & & & & & & & & & & & & & & & & & & @ . ",
". @ & & & & & & & & & & & & & 6%' 7%8%F@F@F@F@G$9%' 0%& !%' ' a%7#I#F@F@F@Z@x#b%' ' ;.& & & & & & & & & & & & & & & & & & & @ . ",
". @ & & & & & & & & & & & & & J.' c%d%F@F@F@F@G$e%v+f%& A ' ' g%h%F@F@F@F@F@i%j%' ' & & & & & & & & & & & & & & & & & & & & @ . ",
". @ & & & & & & & & & & & & & =$< ' k%I#v$I#I#l%m%[ n%& & o%' p%q%F@F@F@F@I#F@r%' p & & & & & & & & & & & & & & & & & & & & @ . ",
". @ & & & & & & & & & & & & & & s%' t%u%v%w%x%y%8 ' z%A%B%C%' D%{$v$F@F@F@Y@G@E%q  +& & & & & & & & & & & & & & & & & & & & @ . ",
". @ & & & & & & & & & & & & F%G%H%I%[ Z 8 8 8 q '.J%K%L%M%N%' O%P%Q%Z@F@F@R%S%T%q U%V%`.& & & & & & & & & & & & & & & & & & @ . ",
". @ & & & & & & & & & & W%X%Y%Z%`% &.&+&@&#&$&%&&&*&=&=&L%-&' ' [ ;&>&,&'&)&!&!@q ~&M%{&]&^&& & & & & & & & & & & & & & & & @ . ",
". @ & & & & & & & & & & /&(&(&_&K%:&=&:&<&<&[&}&_&=&=&=&=&L%|&1&'.8 Z 8 8 8 ' '.2&3&L%=&4&[&5&& & & & & & & & & & & & & & & @ . ",
". @ & & & & & & & & & & X%=&=&=&=&=&=&=&=&=&=&=&=&=&=&=&=&=&=&6&7&8&' '.8 < 9&0&a&=&=&=&L%b&%%& & & & & & & & & & & & & & & @ . ",
". @ & & & & & & & & & & & %%c&d&}&_&4&=&=&(&L%=&=&=&=&=&=&=&=&K%:&3&e&f&g&h&_&=&=&=&i&j&k&A & & & & & & & & & & & & & & & & @ . ",
". @ & & & & & & & & & & & & & & & l&V%m&n&o&p&q&Y%=&=&=&=&=&=&=&=&r&s&t&u&j&v&A%w&_ & & & & & & & & & & & & & & & & & & & & @ . ",
". @ & & & & & & & & & & & & & & & & & & & & & & & & & & & & & & & & & & & & & & & & & & & & & & & & & & & & & & & & & & & & @ . ",
". @ & & & & & & & & & & & & & & & & & & & & & & & & & & & & & & & & & & & & & & & & & & & & & & & & & & & & & & & & & & & & @ . ",
". @ & & & & & & & & & & & & & & & & & & & & & & & & & & & & & & & & & & & & & & & & & & & & & & & & & & & & & & & & & & & & @ . ",
". @ & & & & & & & & & & & & & & & & & & & & & & & & & & & & & & & & & & & & & & & & & & & & & & & & & & & & & & & & & & & & @ . ",
". + @ @ @ @ @ @ @ @ @ @ @ @ @ @ @ @ @ @ @ @ @ @ @ @ @ @ @ @ @ @ @ @ @ @ @ @ @ @ @ @ @ @ @ @ @ @ @ @ @ @ @ @ @ @ @ @ @ @ @ @ + . ",
". . . . . . . . . . . . . . . . . . . . . . . . . . . . . . . . . . . . . . . . . . . . . . . . . . . . . . . . . . . . . . . . "};
