/* XPM */
static char * right_xpm[] = {
"64 64 706 2",
"  	c None",
". 	c #7C7352",
"+ 	c #6B6B64",
"@ 	c #656869",
"# 	c #666869",
"$ 	c #666968",
"% 	c #666868",
"& 	c #5C646F",
"* 	c #5D646F",
"= 	c #5D656E",
"- 	c #484E57",
"; 	c #23272C",
"> 	c #15181B",
", 	c #131619",
"' 	c #000000",
") 	c #080A0C",
"! 	c #2D3137",
"~ 	c #424850",
"{ 	c #555D67",
"] 	c #575E69",
"^ 	c #2D3238",
"/ 	c #32363D",
"( 	c #535A64",
"_ 	c #4A515A",
": 	c #101315",
"< 	c #010000",
"[ 	c #090000",
"} 	c #540909",
"| 	c #5B0708",
"1 	c #5A0809",
"2 	c #500808",
"3 	c #4B0909",
"4 	c #4A090A",
"5 	c #400B0A",
"6 	c #390809",
"7 	c #010001",
"8 	c #010202",
"9 	c #3A3F47",
"0 	c #5A626D",
"a 	c #4E555F",
"b 	c #5A090B",
"c 	c #AE1718",
"d 	c #C21413",
"e 	c #C31313",
"f 	c #C11413",
"g 	c #BF1515",
"h 	c #BF1415",
"i 	c #BE1615",
"j 	c #BD1515",
"k 	c #A81511",
"l 	c #730E0F",
"m 	c #250202",
"n 	c #22262B",
"o 	c #25292F",
"p 	c #070000",
"q 	c #781111",
"r 	c #C51111",
"s 	c #C61111",
"t 	c #C41112",
"u 	c #B31515",
"v 	c #71100E",
"w 	c #060000",
"x 	c #000001",
"y 	c #1E2126",
"z 	c #58606A",
"A 	c #525963",
"B 	c #6A0D0F",
"C 	c #C31215",
"D 	c #C51112",
"E 	c #811210",
"F 	c #050000",
"G 	c #262A2F",
"H 	c #5B636E",
"I 	c #363B42",
"J 	c #910F1A",
"K 	c #C51113",
"L 	c #C61110",
"M 	c #C51211",
"N 	c #C41212",
"O 	c #C31212",
"P 	c #B91716",
"Q 	c #B01B18",
"R 	c #A91716",
"S 	c #AA1817",
"T 	c #B11919",
"U 	c #B01C1A",
"V 	c #5E1618",
"W 	c #030000",
"X 	c #494F58",
"Y 	c #58606B",
"Z 	c #030304",
"` 	c #360519",
" .	c #A71020",
"..	c #C51110",
"+.	c #C51212",
"@.	c #AD1514",
"#.	c #8B1110",
"$.	c #680F0F",
"%.	c #510A0B",
"&.	c #290000",
"*.	c #0A0000",
"=.	c #0E0000",
"-.	c #020000",
";.	c #31363D",
">.	c #640729",
",.	c #B6101D",
"'.	c #C6110F",
").	c #C21412",
"!.	c #770F10",
"~.	c #000100",
"{.	c #0C0E11",
"].	c #4C525C",
"^.	c #7A0D2D",
"/.	c #C11218",
"(.	c #C51213",
"_.	c #891010",
":.	c #00070F",
"<.	c #485A62",
"[.	c #607A83",
"}.	c #7495A3",
"|.	c #84A9B8",
"1.	c #83A9B7",
"2.	c #85A9B7",
"3.	c #80A3B1",
"4.	c #63808A",
"5.	c #35484E",
"6.	c #434951",
"7.	c #260310",
"8.	c #8D0D2C",
"9.	c #BC1513",
"0.	c #350505",
"a.	c #3B4B51",
"b.	c #8CB3C1",
"c.	c #98C6D7",
"d.	c #97C8DB",
"e.	c #95C9DA",
"f.	c #9CC9D9",
"g.	c #E3F0F4",
"h.	c #F6FEFF",
"i.	c #F8FFFF",
"j.	c #EEF7F8",
"k.	c #D9EBEF",
"l.	c #C4DDE3",
"m.	c #A5C1CB",
"n.	c #658089",
"o.	c #0C1317",
"p.	c #4C535D",
"q.	c #1D2125",
"r.	c #3A061B",
"s.	c #920C2C",
"t.	c #C41111",
"u.	c #C71110",
"v.	c #B91615",
"w.	c #1E282B",
"x.	c #4B626B",
"y.	c #8AB6C6",
"z.	c #95C9DC",
"A.	c #95C9DB",
"B.	c #BFDDE6",
"C.	c #FFFFFF",
"D.	c #FEFEFE",
"E.	c #FAFFFE",
"F.	c #D5E7EC",
"G.	c #87ADBC",
"H.	c #263136",
"I.	c #1A1D21",
"J.	c #5A616C",
"K.	c #4A0923",
"L.	c #940B2C",
"M.	c #C41211",
"N.	c #AF1313",
"O.	c #384A50",
"P.	c #4B646E",
"Q.	c #79A1AF",
"R.	c #96C8DB",
"S.	c #A8CFDD",
"T.	c #F1F9F9",
"U.	c #F6FBFC",
"V.	c #FCFFFF",
"W.	c #FEFFFF",
"X.	c #F6FBFD",
"Y.	c #99C8DC",
"Z.	c #87ACBD",
"`.	c #484F58",
" +	c #515862",
".+	c #3F454D",
"++	c #2F333A",
"@+	c #202429",
"#+	c #620B2E",
"$+	c #950B2C",
"%+	c #AD1312",
"&+	c #3C4E54",
"*+	c #4A636E",
"=+	c #5C7C88",
"-+	c #96C8D9",
";+	c #96C9DB",
">+	c #97C8DC",
",+	c #95C7DB",
"'+	c #99C9DB",
")+	c #A7CEDC",
"!+	c #ABCFDC",
"~+	c #BDD9E3",
"{+	c #C4DFE7",
"]+	c #C4DFE8",
"^+	c #B9D7E2",
"/+	c #96C7DB",
"(+	c #98C8DB",
"_+	c #50656D",
":+	c #31363C",
"<+	c #0F0002",
"[+	c #720E36",
"}+	c #AF1312",
"|+	c #38474D",
"1+	c #4A636D",
"2+	c #47636C",
"3+	c #78A2AF",
"4+	c #96C9DA",
"5+	c #96C8DC",
"6+	c #96C8DD",
"7+	c #95C9DD",
"8+	c #94CADC",
"9+	c #96C9DC",
"0+	c #93C6D7",
"a+	c #516C77",
"b+	c #121417",
"c+	c #30353B",
"d+	c #060202",
"e+	c #080000",
"f+	c #1D0000",
"g+	c #150304",
"h+	c #000101",
"i+	c #1D0009",
"j+	c #760C38",
"k+	c #B91515",
"l+	c #060100",
"m+	c #2D3B41",
"n+	c #4B646C",
"o+	c #4A646D",
"p+	c #739AA7",
"q+	c #8EBECE",
"r+	c #95C8DB",
"s+	c #95C8DA",
"t+	c #97C9DA",
"u+	c #97C8D9",
"v+	c #92C3D4",
"w+	c #8CBBCB",
"x+	c #87B6C6",
"y+	c #759BAA",
"z+	c #55747D",
"A+	c #33454C",
"B+	c #370504",
"C+	c #A91516",
"D+	c #C01617",
"E+	c #BF1516",
"F+	c #621314",
"G+	c #1F0009",
"H+	c #770B37",
"I+	c #8C092F",
"J+	c #C31114",
"K+	c #BC1514",
"L+	c #230302",
"M+	c #242E32",
"N+	c #4A646C",
"O+	c #4B636C",
"P+	c #49646F",
"Q+	c #5B7A86",
"R+	c #5C7A86",
"S+	c #5D7A86",
"T+	c #5B7883",
"U+	c #506C77",
"V+	c #496570",
"W+	c #46616B",
"X+	c #48636C",
"Y+	c #49636C",
"Z+	c #48646D",
"`+	c #49646A",
" @	c #232C30",
".@	c #000002",
"+@	c #474D56",
"@@	c #010002",
"#@	c #770F0E",
"$@	c #C61113",
"%@	c #5B0B0D",
"&@	c #160004",
"*@	c #750C37",
"=@	c #860833",
"-@	c #C11217",
";@	c #C41311",
">@	c #6A0C0B",
",@	c #3B4A50",
"'@	c #4B636E",
")@	c #4C636C",
"!@	c #2F3F43",
"~@	c #32373E",
"{@	c #464D56",
"]@	c #891414",
"^@	c #C41213",
"/@	c #C51215",
"(@	c #520809",
"_@	c #180006",
":@	c #840833",
"<@	c #C01218",
"[@	c #C51210",
"}@	c #9C1414",
"|@	c #324248",
"1@	c #496369",
"2@	c #4B636D",
"3@	c #49646D",
"4@	c #49646C",
"5@	c #4A656D",
"6@	c #4C646F",
"7@	c #435961",
"8@	c #2B383E",
"9@	c #4D535D",
"0@	c #96131B",
"a@	c #A10E25",
"b@	c #8D0A2E",
"c@	c #890B30",
"d@	c #330511",
"e@	c #200009",
"f@	c #770A36",
"g@	c #7E0835",
"h@	c #B8111B",
"i@	c #C5120F",
"j@	c #BE1413",
"k@	c #4F0809",
"l@	c #1F2A2D",
"m@	c #3F545A",
"n@	c #496068",
"o@	c #4B656B",
"p@	c #4D646D",
"q@	c #49626B",
"r@	c #435960",
"s@	c #38494D",
"t@	c #232C31",
"u@	c #020405",
"v@	c #760A32",
"w@	c #7B0938",
"x@	c #7B0839",
"y@	c #770A37",
"z@	c #23020C",
"A@	c #23010C",
"B@	c #760B36",
"C@	c #7B0838",
"D@	c #AF0F1E",
"E@	c #9F1211",
"F@	c #1E0201",
"G@	c #070C0F",
"H@	c #1B2527",
"I@	c #232D2F",
"J@	c #1E2628",
"K@	c #0A0F12",
"L@	c #000102",
"M@	c #040606",
"N@	c #3C424A",
"O@	c #0D0103",
"P@	c #750A37",
"Q@	c #7A0938",
"R@	c #7B0837",
"S@	c #760A36",
"T@	c #1D0007",
"U@	c #270311",
"V@	c #AA0F23",
"W@	c #A61615",
"X@	c #4D0707",
"Y@	c #020001",
"Z@	c #2F0303",
"`@	c #711110",
" #	c #4C0B0A",
".#	c #040506",
"+#	c #373D44",
"@#	c #190309",
"##	c #740C37",
"$#	c #180005",
"%#	c #290212",
"&#	c #770A38",
"*#	c #A20F25",
"=#	c #C31211",
"-#	c #BD1413",
";#	c #981315",
">#	c #6A0E0D",
",#	c #310202",
"'#	c #140101",
")#	c #0F0000",
"!#	c #130101",
"~#	c #2A0202",
"{#	c #560809",
"]#	c #730F10",
"^#	c #8D1415",
"/#	c #AA1313",
"(#	c #BB1515",
"_#	c #C31312",
":#	c #6D0E0F",
"<#	c #32373D",
"[#	c #22050F",
"}#	c #760B38",
"|#	c #750B39",
"1#	c #2A0212",
"2#	c #780A38",
"3#	c #C31213",
"4#	c #C4120F",
"5#	c #BB1718",
"6#	c #B21515",
"7#	c #B11414",
"8#	c #B91817",
"9#	c #C21312",
"0#	c #C31216",
"a#	c #630813",
"b#	c #59616C",
"c#	c #2B2F35",
"d#	c #2B0514",
"e#	c #750B38",
"f#	c #830732",
"g#	c #C01216",
"h#	c #C41210",
"i#	c #5D0A1D",
"j#	c #24282D",
"k#	c #330516",
"l#	c #7E0734",
"m#	c #B7111C",
"n#	c #BB1119",
"o#	c #590D27",
"p#	c #4A5059",
"q#	c #1B1E22",
"r#	c #3C0419",
"s#	c #7A0839",
"t#	c #750B37",
"u#	c #290211",
"v#	c #7B0B34",
"w#	c #AA0F21",
"x#	c #B00F20",
"y#	c #5B0C2C",
"z#	c #454C54",
"A#	c #111316",
"B#	c #42051C",
"C#	c #7A0838",
"D#	c #760A39",
"E#	c #190006",
"F#	c #290310",
"G#	c #8D0B2D",
"H#	c #C21114",
"I#	c #9E0F28",
"J#	c #5D0B2D",
"K#	c #454B54",
"L#	c #41051C",
"M#	c #760938",
"N#	c #1C0109",
"O#	c #7D0736",
"P#	c #B3101E",
"Q#	c #C31214",
"R#	c #8C0A2E",
"S#	c #464D55",
"T#	c #3A041A",
"U#	c #7A0937",
"V#	c #780939",
"W#	c #23020E",
"X#	c #2A0211",
"Y#	c #9B0C28",
"Z#	c #B8121B",
"`#	c #7D0735",
" $	c #5D0A2D",
".$	c #320418",
"+$	c #790939",
"@$	c #280411",
"#$	c #7F0735",
"$$	c #AE0E20",
"%$	c #980C29",
"&$	c #7B073A",
"*$	c #5B092A",
"=$	c #2A0513",
"-$	c #760C37",
";$	c #2E0414",
">$	c #280212",
",$	c #7D0835",
"'$	c #B4101E",
")$	c #C41114",
"!$	c #AC0F22",
"~$	c #7D0732",
"{$	c #490521",
"]$	c #555C66",
"^$	c #2F343A",
"/$	c #1A030A",
"($	c #7A0939",
"_$	c #310416",
":$	c #7B0836",
"<$	c #7A0837",
"[$	c #860933",
"}$	c #950A2D",
"|$	c #9F0D27",
"1$	c #A80E22",
"2$	c #B20F1E",
"3$	c #BE1219",
"4$	c #C21216",
"5$	c #BC1219",
"6$	c #AE0F1F",
"7$	c #920C2B",
"8$	c #7C0736",
"9$	c #41051D",
"0$	c #040001",
"a$	c #740B36",
"b$	c #39061B",
"c$	c #21000A",
"d$	c #770B38",
"e$	c #7C0837",
"f$	c #7C0737",
"g$	c #830832",
"h$	c #8F0B2E",
"i$	c #900A2D",
"j$	c #900A2C",
"k$	c #8D0B2F",
"l$	c #7C0735",
"m$	c #7C0836",
"n$	c #760B37",
"o$	c #24030E",
"p$	c #282C31",
"q$	c #690B31",
"r$	c #7C0738",
"s$	c #41081F",
"t$	c #20000A",
"u$	c #7B083A",
"v$	c #720B35",
"w$	c #0F0105",
"x$	c #41071D",
"y$	c #720B32",
"z$	c #490925",
"A$	c #20010A",
"B$	c #790938",
"C$	c #6E0B33",
"D$	c #444A52",
"E$	c #31353C",
"F$	c #1C020A",
"G$	c #4F0824",
"H$	c #520725",
"I$	c #36051A",
"J$	c #0D0002",
"K$	c #700E37",
"L$	c #6D0B32",
"M$	c #640D30",
"N$	c #6F0A35",
"O$	c #780B37",
"P$	c #790937",
"Q$	c #600B2C",
"R$	c #4E545E",
"S$	c #670B31",
"T$	c #7A0836",
"U$	c #560927",
"V$	c #0A0003",
"W$	c #020002",
"X$	c #0D0005",
"Y$	c #1C010C",
"Z$	c #2C0515",
"`$	c #380A1E",
" %	c #390A1F",
".%	c #39091E",
"+%	c #2C0416",
"@%	c #5B082A",
"#%	c #4A0824",
"$%	c #4F5660",
"%%	c #585F6A",
"&%	c #2E3238",
"*%	c #5D082C",
"=%	c #7B0737",
"-%	c #280310",
";%	c #640A2E",
">%	c #790A35",
",%	c #790936",
"'%	c #750C39",
")%	c #260211",
"!%	c #575F69",
"~%	c #565D68",
"{%	c #4F565F",
"]%	c #560728",
"^%	c #310717",
"/%	c #40464E",
"(%	c #0A0103",
"_%	c #590F2D",
":%	c #740B35",
"<%	c #060002",
"[%	c #21252A",
"}%	c #560726",
"|%	c #20040F",
"1%	c #1F2327",
"2%	c #160106",
"3%	c #750E37",
"4%	c #6C0A34",
"5%	c #353A41",
"6%	c #530726",
"7%	c #1B030C",
"8%	c #16191C",
"9%	c #350417",
"0%	c #6E0A35",
"a%	c #040101",
"b%	c #3E434B",
"c%	c #42081F",
"d%	c #7C0739",
"e%	c #780938",
"f%	c #260512",
"g%	c #25292E",
"h%	c #3B061C",
"i%	c #710935",
"j%	c #090102",
"k%	c #340417",
"l%	c #780937",
"m%	c #2F0817",
"n%	c #13161A",
"o%	c #3E444B",
"p%	c #120005",
"q%	c #730C37",
"r%	c #630A2F",
"s%	c #20010B",
"t%	c #2E0616",
"u%	c #202327",
"v%	c #515760",
"w%	c #515860",
"x%	c #464C53",
"y%	c #4A0925",
"z%	c #5D072D",
"A%	c #5E082E",
"B%	c #5D082D",
"C%	c #540B2A",
"D%	c #2D0615",
"E%	c #2A2F34",
"F%	c #535A63",
"G%	c #292D31",
"H%	c #180109",
"I%	c #690C31",
"J%	c #790A37",
"K%	c #720B36",
"L%	c #3F061E",
"M%	c #010100",
"N%	c #1E1F20",
"O%	c #393B3C",
"P%	c #383B3C",
"Q%	c #373B3B",
"R%	c #1A1C1D",
"S%	c #020102",
"T%	c #454A51",
"U%	c #575E68",
"V%	c #5C636E",
"W%	c #525961",
"X%	c #42484A",
"Y%	c #383C3D",
"Z%	c #242626",
"`%	c #0A0004",
" &	c #370317",
".&	c #4E0925",
"+&	c #4F0B26",
"@&	c #440821",
"#&	c #170109",
"$&	c #2A2C2D",
"%&	c #373B3C",
"&&	c #353939",
"*&	c #181B1A",
"=&	c #0C0F0E",
"-&	c #080B0A",
";&	c #070908",
">&	c #080A0A",
",&	c #0C0E0E",
"'&	c #16181A",
")&	c #2B2D2D",
"!&	c #383B3A",
"~&	c #373C3A",
"{&	c #3B4042",
"]&	c #494F56",
"^&	c #59616B",
"/&	c #50575F",
"(&	c #363B3B",
"_&	c #363C3B",
":&	c #343838",
"<&	c #0B0C0E",
"[&	c #020303",
"}&	c #28292A",
"|&	c #373C3B",
"1&	c #383C3C",
"2&	c #363A3A",
"3&	c #373C3C",
"4&	c #363B3C",
"5&	c #3A4041",
"6&	c #3D4144",
"7&	c #35393A",
"8&	c #2C302F",
"9&	c #171918",
"0&	c #020202",
"a&	c #1C1D1D",
"b&	c #323536",
"c&	c #525962",
"d&	c #484E54",
"e&	c #3D4143",
"f&	c #343938",
"g&	c #2E3233",
"h&	c #2E3131",
"i&	c #2F3333",
"j&	c #43484C",
"k&	c #4C535A",
"l&	c #565D67",
"m&	c #4C5259",
"n&	c #444A4F",
"o&	c #3F4448",
"p&	c #3D4245",
"q&	c #393D3F",
"r&	c #3D4346",
"s&	c #42484C",
"t&	c #454B51",
"u&	c #4A5057",
"v&	c #4E545C",
"w&	c #585F69",
". . . . . . . . . . . . . . . . . . . . . . . . . . . . . . . . . . . . . . . . . . . . . . . . . . . . . . . . . . . . . . . . ",
". + @ @ @ @ @ @ @ @ @ @ @ @ @ @ @ @ @ @ @ @ @ @ @ @ @ @ @ @ @ @ @ @ @ @ @ @ @ @ @ @ @ @ @ # $ $ % @ @ @ @ @ @ @ @ @ @ @ @ @ + . ",
". @ & & & & & & & & & & & & & & & & & & & & & & & & & & & & & & & & & & & & & & & & & & * * = = = & & & & & & & & & & & & & @ . ",
". @ & & & & & & & & & & & & & & & & & & & & & & & & & & & & & & & & & & & & & & & & & & & & & & & & & & & & & & & & & & & & @ . ",
". @ & & & & & & & & & & & & & & & & & & & & & & & & & & & & & & & & & & & & & & & & & & & & & & & & & & & & & & & & & & & & @ . ",
". @ & & & & & & & & & & & & & & & & & & & & & & & & & & & & & & & & & & & & & & & & & & & & & & & & & & & & & & & & & & & & @ . ",
". @ & & & & & & & & & & & & & & & & & & & & & & & & & & & & & & & & & & & & & & & & & & & & & & & & & & & & & & & & & & & & @ . ",
". @ & & & & & & & & & & & & & & & & & & & & & & & & & & - ; > > > > > , ' ) ! ~ { & & & & & & & & & & & & & & & & & & & & & @ . ",
". @ & & & & & & & & & & & & & & & & & & & & & & & & ] ^ ' ' ' ' ' ' ' ' ' ' ' ' ' / ( & & & & & & & & & & & & & & & & & & & @ . ",
". @ & & & & & & & & & & & & & & & & & & & & & & & _ : < ' [ } | 1 2 3 4 5 6 ' 7 ' ' 8 9 0 & & & & & & & & & & & & & & & & & @ . ",
". @ & & & & & & & & & & & & & & & & & & & & & & a 8 < ' b c d e e f g h i j k l m ' ' ' n ] & & & & & & & & & & & & & & & & @ . ",
". @ & & & & & & & & & & & & & & & & & & & & & & o ' p q h r r r s s r r r r r t u v w x 7 y z & & & & & & & & & & & & & & & @ . ",
". @ & & & & & & & & & & & & & & & & & & & & & A ' x B C D r r r s s r r r r r r r e E F ' ' G H & & & & & & & & & & & & & & @ . ",
". @ & & & & & & & & & & & & & & & & & & & & & I ' 7 J D D r K r L M N O P Q R S S T U V W ' ' X & & & & & & & & & & & & & & @ . ",
". @ & & & & & & & & & & & & & & & & & & & & Y Z ' `  ...D r r +.@.#.$.%.&.< ' ' ' *.=.-.< ' ' ;.& & & & & & & & & & & & & & @ . ",
". @ & & & & & & & & & & & & & & & & & & & & - ' < >.,.r '.r ).!.*.' < x x ' < ' ' ' ' ~.-.7 < {.].& & & & & & & & & & & & & @ . ",
". @ & & & & & & & & & & & & & & & & & & & & 9 ' w ^./.r r (._.' ' ' ' :.<.[.}.|.1.2.3.4.5.' < ' ' 6.& & & & & & & & & & & & @ . ",
". @ & & & & & & & & & & & & & & & & & & & & ! ' 7.8.t r L 9.0.' ' a.b.c.d.e.f.g.h.i.j.k.l.m.n.o.7 8 p.& & & & & & & & & & & @ . ",
". @ & & & & & & & & & & & & & & & & & & & & q.' r.s.t.r u.v.' ' w.x.y.z.A.e.B.C.C.C.C.D.D.E.F.G.H.' I.0 & & & & & & & & & & @ . ",
". @ & & & & & & & & & & & & & & & & & & & J.' < K.L.t r M.N.' < O.P.Q.A.z.R.S.T.U.V.V.W.W.C.X.Y.Z.' ' `.& & & & & & & & & & @ . ",
". @ & & & & & & & & & & & & & & H  +.+++@+> < -.#+$+D r M.%+' < &+*+=+-+;+>+>+,+'+)+!+~+{+]+^+/+(+_+< :+& & & & & & & & & & @ . ",
". @ & & & & & & & & & & & & & { ; ' ' ~.' 7 7 <+[+L.D r r }+' ' |+1+2+3+4+5+6+7+7+5+A.8+z.A.A.9+0+a+< b+& & & & & & & & & & @ . ",
". @ & & & & & & & & & & & & & c+' ' d+e+f+g+h+i+j+$+r r M.k+l+' m+n+o+*+p+q+;+r+s+e.t+u+v+w+x+y+z+A+' ' & & & & & & & & & & @ . ",
". @ & & & & & & & & & & & & A ' < B+C+D+E+F+~.G+H+I+J+r r K+L+x M+N+o+O+N+P+Q+R+S+T+U+V+W+X+Y+Z+`+ @.@, & & & & & & & & & & @ . ",
". @ & & & & & & & & & & & & +@' @@#@r r $@%@' &@*@=@-@r L ;@>@7 ' ,@'@o+o+o+o+o+o+o+o+o+o+o+o+)@!@x .@~@& & & & & & & & & & @ . ",
". @ & & & & & & & & & & & & {@' -.]@M ^@/@(@~._@*@:@<@[@M.L }@' < ' |@1@2@o+3@o+o+N+4@5@o+6@7@8@' x x 9@& & & & & & & & & & @ . ",
". @ & & & & & & & & & & & & {@' ~.0@a@b@c@d@' e@f@g@h@i@..r j@k@< ' 7 l@m@n@o@o@n+p@q@r@s@t@u@' ' ~.:+& & & & & & & & & & & @ . ",
". @ & & & & & & & & & & & & ~ ' ' v@w@x@y@z@< A@B@C@D@r s r [@E@F@x ' x x G@H@I@I@J@K@L@< ' < x x M@& & & & & & & & & & & & @ . ",
". @ & & & & & & & & & & & & N@' O@P@Q@R@S@T@< U@y@C@V@t r r ..t.W@X@Y@~.7 < ' ' ' < < ~.< Z@`@ #< .#& & & & & & & & & & & & @ . ",
". @ & & & & & & & & & & & & +#' @#y@Q@R@##$#' %#&#C@*#M ..r N [@=#-#;#>#,#'#)#!#~#{#]#^#/#(#_#:#< Z 0 & & & & & & & & & & & @ . ",
". @ & & & & & & & & & & & & <#' [#}#Q@R@|#_@-.1#2#C@b@3#r r r r r r r 4#5#6#7#7#8#9#r r r r 0#a#< Z b#& & & & & & & & & & & @ . ",
". @ & & & & & & & & & & & & c#' d#&#Q@R@e#_@< %#2#C@f#g#r r r r r r [@r s L h#L [@r M.r r r g#i#Y@'  +& & & & & & & & & & & @ . ",
". @ & & & & & & & & & & & & j#' k#2#Q@R@*@$#' %#2#C@l#m#r r r r r r r r r r r r r r r r r D n#o#< ' p#& & & & & & & & & & & @ . ",
". @ & & & & & & & & & & & & q#' r#s#Q@R@t#$#' u#2#C@v#w#r r r r r r r r r r r r r r r r r D x#y#~.' z#& & & & & & & & & & & @ . ",
". @ & & & & & & & & & & & & A#' B#C#Q@R@D#E#' F#2#C@C@G#H#r r r r r r r r r r r r r r r r M I#J#< ' K#& & & & & & & & & & & @ . ",
". @ & & & & & & & & & & & & ' ' L#C#Q@R@M#N#' F#2#C@C@O#P#r r r r r r r r r r r r r r r r Q#R#J#7 ' S#& & & & & & & & & & & @ . ",
". @ & & & & & & & & & & & & ' ' T#U#Q@R@V#W#-.X#2#C@C@C@Y#O [@h#h#h#[@r r r r r r r r r r Z#`# $x ' p#& & & & & & & & & & & @ . ",
". @ & & & & & & & & & & & & {.' .$2#Q@R@+$@$-.1#2#C@C@C@#$$$N M.M.M.r r r r r r r r r r 3#%$&$*$' ' a & & & & & & & & & & & @ . ",
". @ & & & & & & & & & & & & y ' =$-$Q@R@x@;$' >$&#C@C@C@R@,$'$)$K r [@M.r r r r r ..t N !$~$C@{$~.8 ]$& & & & & & & & & & & @ . ",
". @ & & & & & & & & & & & & ^$' /$}#Q@R@($_$' 7.&#C@C@C@:$<$[$}$|$1$2$3$O Q#Q#Q#4$5$6$7$8$C#+$9$' ) H & & & & & & & & & & & @ . ",
". @ & & & & & & & & & & & & N@' 0$a$Q@R@C@b$~.c$d$C@C@C@C@C@C@C@C@e$f$g$h$i$j$k$g$l$m$C@C@C@n$o$< p$& & & & & & & & & & & & @ . ",
". @ & & & & & & & & & & & & _ ' ~.q$C#R@r$s$' t$j+C@C@C@C@C@C@C@C@C@C@C@C@u$x@<$C#s#x@C@C@C@v$w$' ^ & & & & & & & & & & & & @ . ",
". @ & & & & & & & & & & & & Y 8 ~.x$y$U#x@z$' A$j+C@C@C@C@C@C@C@x@x@x@B$C#C@C@C@C@C@C@C@C@:$C$7 ' D$& & & & & & & & & & & & @ . ",
". @ & & & & & & & & & & & & & E$< .@F$G$H$I$' J$K$C@C@C@C@C@C@C@U#L$M$N$O$P$Q@Q@Q@Q@B$Q@C@R@Q$' < R$& & & & & & & & & & & & @ . ",
". @ & & & & & & & & & & & & & A A#' ' ' ' ' ~.-.S$C@C@C@C@C@<$T$U$V$W$X$Y$Z$`$ % %.%+%@%:$R@#%' ' $%& & & & & & & & & & & & @ . ",
". @ & & & & & & & & & & & & & & %%&%' ' ' ' ~.< *%=%C#C@C@C@U#U#9$@@Y@< < < < ~.' -%;%>%,%'%)%' .#!%& & & & & & & & & & & & @ . ",
". @ & & & & & & & & & & & & & & & H ~%~%~%{%~.~.]%:$R@C@C@C@R@P$^%' Z D$/%q.' (%_%:%C@C@C@N$<%' [%& & & & & & & & & & & & & @ . ",
". @ & & & & & & & & & & & & & & & & & & & ] ' x }%<$R@C@C@C@R@2#|%' ' b#& 1%' 2%3%,%Q@C@C@4%' ' 5%& & & & & & & & & & & & & @ . ",
". @ & & & & & & & & & & & & & & & & & & & Y ' ' 6%s#Q@C@C@C@C#2#7%' ' %%& 8%' 9%P$C@C@C@C@0%a%' b%& & & & & & & & & & & & & @ . ",
". @ & & & & & & & & & & & & & & & & & & & & ' ' c%d%C@C@C@C@C@e%f%' ' H & g%h+h%P$C@C@C@C@i%j%' `.& & & & & & & & & & & & & @ . ",
". @ & & & & & & & & & & & & & & & & & & & & y ' k%C@C#C@C@C@C@l%m%' n%& & o%7 p%q%C#C#r$C#r%' 8 ]$& & & & & & & & & & & & & @ . ",
". @ & & & & & & & & & & & & & & & & & & & & :+x s%B@R@C@C@C@r$-$t%' u%v%w%x%' < y%z%A%B%C%D%' E%& & & & & & & & & & & & & & @ . ",
". @ & & & & & & & & & & & & & & & & & & J.F%G%x H%I%J%C@C@Q@K%L%M%' N%O%P%Q%R%~.x < < < -.7 S%T%U%V%& & & & & & & & & & & & @ . ",
". @ & & & & & & & & & & & & & & & & W%X%Y%O%Z%x @@`% &.&+&@&#&7 ' ' $&P%%&%&&&*&=&-&;&>&,&'&)&!&~&{&]&^&& & & & & & & & & & @ . ",
". @ & & & & & & & & & & & & & & & /&(&_&%&P%:&<&~.' < < < -.< ~.[&}&P%%&%&%&%&|&1&(&2&2&3&%&3&Q%|&4&4&5&& & & & & & & & & & @ . ",
". @ & & & & & & & & & & & & & & & !%6&P%%&%&%&7&8&9&8 < ~.' 0&a&b&%&%&%&%&%&%&%&%&%&%&%&%&%&%&%&%&%&%&]&& & & & & & & & & & @ . ",
". @ & & & & & & & & & & & & & & & & H c&d&e&%&%&%&|&f&g&h&i&:&3&Q%%&%&%&%&%&%&%&%&P%4&%&%&_&|&1&j&k&!%& & & & & & & & & & & @ . ",
". @ & & & & & & & & & & & & & & & & & & & & 0 l&w%m&d&n&o&p&q&%&%&%&%&%&%&%&%&{&r&s&t&u&v&F%w&& & & & & & & & & & & & & & & @ . ",
". @ & & & & & & & & & & & & & & & & & & & & & & & & & & & & & & & & & & & & & & & & & & & & & & & & & & & & & & & & & & & & @ . ",
". @ & & & & & & & & & & & & & & & & & & & & & & & & & & & & & & & & & & & & & & & & & & & & & & & & & & & & & & & & & & & & @ . ",
". @ & & & & & & & & & & & & & & & & & & & & & & & & & & & & & & & & & & & & & & & & & & & & & & & & & & & & & & & & & & & & @ . ",
". @ & & & & & & & & & & & & & & & & & & & & & & & & & & & & & & & & & & & & & & & & & & & & & & & & & & & & & & & & & & & & @ . ",
". + @ @ @ @ @ @ @ @ @ @ @ @ @ @ @ @ @ @ @ @ @ @ @ @ @ @ @ @ @ @ @ @ @ @ @ @ @ @ @ @ @ @ @ @ @ @ @ @ @ @ @ @ @ @ @ @ @ @ @ @ + . ",
". . . . . . . . . . . . . . . . . . . . . . . . . . . . . . . . . . . . . . . . . . . . . . . . . . . . . . . . . . . . . . . . "};
