/* XPM */
static char * wall_xpm[] = {
"64 64 22 1",
" 	c None",
".	c #323F3F",
"+	c #334040",
"@	c #324040",
"#	c #344242",
"$	c #364444",
"%	c #374444",
"&	c #384545",
"*	c #394646",
"=	c #354343",
"-	c #374545",
";	c #364343",
">	c #384646",
",	c #394747",
"'	c #3B4848",
")	c #3B4949",
"!	c #3A4848",
"~	c #3A4747",
"{	c #3C4949",
"]	c #3C4A4A",
"^	c #334141",
"/	c #344141",
"...............................++++@............................",
".#$$$$$$$$$%&&&&********************&&&&&&&&%%%&&&&&%$$$$$$$$$=.",
".$---------&****************************************&---------$.",
".;---------&****************************************&---------%.",
"+----------&****************************************&-------->%.",
"+->--------&****************************************&-------&&$.",
".&---------&****************************************&-------&&-.",
".&------&&-&****************************************&-------&&&.",
".-&----&&&-,,,,,,,,,,,,,,,,,,,,,,,,,,,,,,,,,,,,,,,,,>-------&&-+",
".*>>>->>&>,'))))))))))))))))))))))))))))))))))))))))!>>>>>>>**&.",
".&*******,~{]]]]]]]]]]]]]]]]]]]]]]]]]]]]]]]]]]]]]]]]',********&.",
"+********,~]]]]]]]]]]]]]]]]]]]]]]]]]]]]]]]]]]]]]]]]]',********&.",
".********,~]]]]]]]]]]]]]]]]]]]]]]]]]]]]]]]]]]]]]]]]]',********&.",
"^********,~]]]]]]]]]]]]]]]]]]]]]]]]]]]]]]]]]]]]]]]]]',********%+",
"+********,~]]]]]]]]]]]]]]]]]]]]]]]]]]]]]]]]]]]]]]]]]',********%+",
"+********,~]]]]]]]]]]]]]]]]]]]]]]]]]]]]]]]]]]]]]]]]]),********%.",
"+********,~]]]]]]]]]]]]]]]]]]]]]]]]]]]]]]]]]]]]]]]]]',********%.",
"@*********~]]]]]]]]]]]]]]]]]]]]]]]]]]]]]]]]]]]]]]]]]',********%.",
".*********~{]]]]]]]]]]]]]]]]]]]]]]]]]]]]]]]]]]]]]]]]',********%.",
".*********~{]]]]]]]]]]]]]]]]]]]]]]]]]]]]]]]]]]]]]]]]),********%.",
"@*********~)]]]]]]]]]]]]]]]]]]]]]]]]]]]]]]]]]]]]]]]]),********%.",
".*********~)]]]]]]]]]]]]]]]]]]]]]]]]]]]]]]]]]]]]]]]]),********&+",
"+*********~)]]]]]]]]]]]]]]]]]]]]]]]]]]]]]]]]]]]]]]]]',********&.",
"@*********~)]]]]]]]]]]]]]]]]]]]]]]]]]]]]]]]]]]]]]]]]',********&.",
"@*********~)]]]]]]]]]]]]]]]]]]]]]]]]]]]]]]]]]]]]]]]]',********-.",
"@*********~)]]]]]]]]]]]]]]]]]]]]]]]]]]]]]]]]]]]]]]]]',********-.",
"@*********~)]]]]]]]]]]]]]]]]]]]]]]]]]]]]]]]]]]]]]]]]',********-.",
"@*********~)]]]]]]]]]]]]]]]]]]]]]]]]]]]]]]]]]]]]]]]]',********&.",
"@*********~)]]]]]]]]]]]]]]]]]]]]]]]]]]]]]]]]]]]]]]]]',********%.",
".*********~)]]]]]]]]]]]]]]]]]]]]]]]]]]]]]]]]]]]]]]]]',********%.",
".*********~)]]]]]]]]]]]]]]]]]]]]]]]]]]]]]]]]]]]]]]]]',********%.",
".*********~)]]]]]]]]]]]]]]]]]]]]]]]]]]]]]]]]]]]]]]]]',********%.",
".&********~)]]]]]]]]]]]]]]]]]]]]]]]]]]]]]]]]]]]]]]]]!,********%+",
".&********~)]]]]]]]]]]]]]]]]]]]]]]]]]]]]]]]]]]]]]]]]!,********%+",
"+*********~)]]]]]]]]]]]]]]]]]]]]]]]]]]]]]]]]]]]]]]]]!,********&+",
"+*********~)]]]]]]]]]]]]]]]]]]]]]]]]]]]]]]]]]]]]]]]]!,********&.",
".&********~)]]]]]]]]]]]]]]]]]]]]]]]]]]]]]]]]]]]]]]]]!,*********.",
".&********~)]]]]]]]]]]]]]]]]]]]]]]]]]]]]]]]]]]]]]]]]!,*********@",
".&*******,~)]]]]]]]]]]]]]]]]]]]]]]]]]]]]]]]]]]]]]]]]!,********&+",
".********,~)]]]]]]]]]]]]]]]]]]]]]]]]]]]]]]]]]]]]]]]]!,********&+",
".********,~)]]]]]]]]]]]]]]]]]]]]]]]]]]]]]]]]]]]]]]]]!,********&+",
".********,~)]]]]]]]]]]]]]]]]]]]]]]]]]]]]]]]]]]]]]]]]!,********&.",
".********,~)]]]]]]]]]]]]]]]]]]]]]]]]]]]]]]]]]]]]]]]]!,********&.",
"+********,~)]]]]]]]]]]]]]]]]]]]]]]]]]]]]]]]]]]]]]]]]!,********&.",
"@********,~)]]]]]]]]]]]]]]]]]]]]]]]]]]]]]]]]]]]]]]]]!,********&.",
".********,~)]]]]]]]]]]]]]]]]]]]]]]]]]]]]]]]]]]]]]]]]!,********&.",
".********,~)]]]]]]]]]]]]]]]]]]]]]]]]]]]]]]]]]]]]]]]]!,********&.",
".********,~)]]]]]]]]]]]]]]]]]]]]]]]]]]]]]]]]]]]]]]]]!,********&.",
".&*******,~)]]]]]]]]]]]]]]]]]]]]]]]]]]]]]]]]]]]]]]]]!,********&.",
".&*******,~)]]]]]]]]]]]]]]]]]]]]]]]]]]]]]]]]]]]]]]]]!,********&.",
".&*******,~)]]]]]]]]]]]]]]]]]]]]]]]]]]]]]]]]]]]]]]]]!,********%+",
".&*******,~']]]]]]]]]]]]]]]]]]]]]]]]]]]]]]]]]]]]]]]]!,********&.",
".&*******,~)]]]]]]]]]]]]]]]]]]]]]]]]]]]]]]]]]]]]]]]]!,********&.",
"@&*******,~)]]]]]]]]]]]]]]]]]]]]]]]]]]]]]]]]]]]]]]]]!,********%+",
"+&*******,~)]]]]]]]]]]]]]]]]]]]]]]]]]]]]]]]]]]]]]]]]!,*****>>>%@",
"+&&&&&&&&>~!)))))))))))))))))))))))))))))))))))))))),>>>>&----$@",
".$------&&,~~!!!!!~~~!!!!!!!!!~~~!!!!!~~~!!!!!!!!!~~*&--------$@",
".$-------->,,,,,,,,,,,,,,,,,,,,,,,,,,,,,,,,,,,,,,,,,>---------$@",
".%-------->*****************************************&---------$@",
".%-------->*****************************************&---------$+",
".%-------&******************************************&---------$@",
".$-&>***&&>*****************************************&---------$@",
".#$%&-&&&&&%&&&&&%&&&&&&&&&&&&&&&&&&&&&&&&%%%%%%%%&&----------$@",
"..................................................++@+/^+@@@@@.."};
